<svg version="1.1" width="16cm" height="24cm"
    xmlns="http://www.w3.org/2000/svg">
<rect x="5" y="1cm" width="5cm" height="1cm" fill="#F0F8FF" />
<rect x="5" y="2cm" width="5cm" height="1cm" fill="#FAEBD7" />
<rect x="5" y="3cm" width="5cm" height="1cm" fill="#AFDFE4" />
<rect x="5" y="4cm" width="5cm" height="1cm" fill="#7FFFD4" />
<rect x="5" y="5cm" width="5cm" height="1cm" fill="#F0FFFF" />
<rect x="5" y="6cm" width="5cm" height="1cm" fill="#F5F5DC" />
<rect x="5" y="7cm" width="5cm" height="1cm" fill="#FFE4C4" />
<rect x="5" y="8cm" width="5cm" height="1cm" fill="#000000" />
<rect x="5" y="9cm" width="5cm" height="1cm" fill="#FFEBCD" />
<rect x="5" y="10cm" width="5cm" height="1cm" fill="#0000FF" />
<rect x="5" y="11cm" width="5cm" height="1cm" fill="#8A2BE2" />
<rect x="5" y="12cm" width="5cm" height="1cm" fill="#A52A2A" />
<rect x="5" y="13cm" width="5cm" height="1cm" fill="#DEB887" />
<rect x="5" y="14cm" width="5cm" height="1cm" fill="#5F9EA0" />
<rect x="5" y="15cm" width="5cm" height="1cm" fill="#7FFF00" />
<rect x="5" y="16cm" width="5cm" height="1cm" fill="#D2691E" />
<rect x="5" y="17cm" width="5cm" height="1cm" fill="#FF7F50" />
<rect x="5" y="18cm" width="5cm" height="1cm" fill="#6495ED" />
<rect x="5" y="19cm" width="5cm" height="1cm" fill="#FFF8DC" />
<rect x="5" y="20cm" width="5cm" height="1cm" fill="#DC143C" />
<rect x="5" y="21cm" width="5cm" height="1cm" fill="#00FFFF" />
<rect x="5" y="22cm" width="5cm" height="1cm" fill="#00008B" />
<rect x="5" y="23cm" width="5cm" height="1cm" fill="#008B8B" />
<rect x="5" y="24cm" width="5cm" height="1cm" fill="#B8860B" />
<rect x="5" y="25cm" width="5cm" height="1cm" fill="#A9A9A9" />
<rect x="5" y="26cm" width="5cm" height="1cm" fill="#006400" />
<rect x="5" y="27cm" width="5cm" height="1cm" fill="#BDB76B" />
<rect x="5" y="28cm" width="5cm" height="1cm" fill="#8B008B" />
<rect x="5" y="29cm" width="5cm" height="1cm" fill="#556B2F" />
<rect x="5" y="30cm" width="5cm" height="1cm" fill="#FF8C00" />
<rect x="5" y="31cm" width="5cm" height="1cm" fill="#9932CC" />
<rect x="5" y="32cm" width="5cm" height="1cm" fill="#8B0000" />
<rect x="5" y="33cm" width="5cm" height="1cm" fill="#E9967A" />
<rect x="5" y="34cm" width="5cm" height="1cm" fill="#8FBC8F" />
<rect x="5" y="35cm" width="5cm" height="1cm" fill="#483D8B" />
<rect x="5" y="36cm" width="5cm" height="1cm" fill="#2F4F4F" />
<rect x="5" y="37cm" width="5cm" height="1cm" fill="#00CED1" />
<rect x="5" y="38cm" width="5cm" height="1cm" fill="#9400D3" />
<rect x="5" y="39cm" width="5cm" height="1cm" fill="#FF1493" />
<rect x="5" y="40cm" width="5cm" height="1cm" fill="#00BFFF" />
<rect x="5" y="41cm" width="5cm" height="1cm" fill="#696969" />
<rect x="5" y="42cm" width="5cm" height="1cm" fill="#1E90FF" />
<rect x="5" y="43cm" width="5cm" height="1cm" fill="#B22222" />
<rect x="5" y="44cm" width="5cm" height="1cm" fill="#FFFAF0" />
<rect x="5" y="45cm" width="5cm" height="1cm" fill="#228B22" />
<rect x="5" y="46cm" width="5cm" height="1cm" fill="#F400A1" />
<rect x="5" y="47cm" width="5cm" height="1cm" fill="#DCDCDC" />
<rect x="5" y="48cm" width="5cm" height="1cm" fill="#F8F8FF" />
<rect x="5" y="49cm" width="5cm" height="1cm" fill="#FFD700" />
<rect x="5" y="50cm" width="5cm" height="1cm" fill="#DAA520" />
<rect x="5" y="51cm" width="5cm" height="1cm" fill="#808080" />
<rect x="5" y="52cm" width="5cm" height="1cm" fill="#008000" />
<rect x="5" y="53cm" width="5cm" height="1cm" fill="#ADFF2F" />
<rect x="5" y="54cm" width="5cm" height="1cm" fill="#F0FFF0" />
<rect x="5" y="55cm" width="5cm" height="1cm" fill="#FF69B4" />
<rect x="5" y="56cm" width="5cm" height="1cm" fill="#CD5C5C" />
<rect x="5" y="57cm" width="5cm" height="1cm" fill="#4B0082" />
<rect x="5" y="58cm" width="5cm" height="1cm" fill="#FFFFF0" />
<rect x="5" y="59cm" width="5cm" height="1cm" fill="#F0E68C" />
<rect x="5" y="60cm" width="5cm" height="1cm" fill="#E6E6FA" />
<rect x="5" y="61cm" width="5cm" height="1cm" fill="#FFF0F5" />
<rect x="5" y="62cm" width="5cm" height="1cm" fill="#7CFC00" />
<rect x="5" y="63cm" width="5cm" height="1cm" fill="#FFFACD" />
<rect x="5" y="64cm" width="5cm" height="1cm" fill="#ADD8E6" />
<rect x="5" y="65cm" width="5cm" height="1cm" fill="#F08080" />
<rect x="5" y="66cm" width="5cm" height="1cm" fill="#E0FFFF" />
<rect x="5" y="67cm" width="5cm" height="1cm" fill="#FAFAD2" />
<rect x="5" y="68cm" width="5cm" height="1cm" fill="#D3D3D3" />
<rect x="5" y="69cm" width="5cm" height="1cm" fill="#90EE90" />
<rect x="5" y="70cm" width="5cm" height="1cm" fill="#FFB6C1" />
<rect x="5" y="71cm" width="5cm" height="1cm" fill="#FFA07A" />
<rect x="5" y="72cm" width="5cm" height="1cm" fill="#20B2AA" />
<rect x="5" y="73cm" width="5cm" height="1cm" fill="#87CEFA" />
<rect x="5" y="74cm" width="5cm" height="1cm" fill="#778899" />
<rect x="5" y="75cm" width="5cm" height="1cm" fill="#B0C4DE" />
<rect x="5" y="76cm" width="5cm" height="1cm" fill="#FFFFE0" />
<rect x="5" y="77cm" width="5cm" height="1cm" fill="#00FF00" />
<rect x="5" y="78cm" width="5cm" height="1cm" fill="#32CD32" />
<rect x="5" y="79cm" width="5cm" height="1cm" fill="#FAF0E6" />
<rect x="5" y="80cm" width="5cm" height="1cm" fill="#FF00FF" />
<rect x="5" y="81cm" width="5cm" height="1cm" fill="#800000" />
<rect x="5" y="82cm" width="5cm" height="1cm" fill="#66CDAA" />
<rect x="5" y="83cm" width="5cm" height="1cm" fill="#0000CD" />
<rect x="5" y="84cm" width="5cm" height="1cm" fill="#BA55D3" />
<rect x="5" y="85cm" width="5cm" height="1cm" fill="#9370D8" />
<rect x="5" y="86cm" width="5cm" height="1cm" fill="#3CB371" />
<rect x="5" y="87cm" width="5cm" height="1cm" fill="#7B68EE" />
<rect x="5" y="88cm" width="5cm" height="1cm" fill="#00FA9A" />
<rect x="5" y="89cm" width="5cm" height="1cm" fill="#48D1CC" />
<rect x="5" y="90cm" width="5cm" height="1cm" fill="#C71585" />
<rect x="5" y="91cm" width="5cm" height="1cm" fill="#191970" />
<rect x="5" y="92cm" width="5cm" height="1cm" fill="#F5FFFA" />
<rect x="5" y="93cm" width="5cm" height="1cm" fill="#FFE4E1" />
<rect x="5" y="94cm" width="5cm" height="1cm" fill="#FFE4B5" />
<rect x="5" y="95cm" width="5cm" height="1cm" fill="#FFDEAD" />
<rect x="5" y="96cm" width="5cm" height="1cm" fill="#000080" />
<rect x="5" y="97cm" width="5cm" height="1cm" fill="#FDF5E6" />
<rect x="5" y="98cm" width="5cm" height="1cm" fill="#808000" />
<rect x="5" y="99cm" width="5cm" height="1cm" fill="#6B8E23" />
<rect x="5" y="100cm" width="5cm" height="1cm" fill="#FFA500" />
<rect x="5" y="101cm" width="5cm" height="1cm" fill="#FF4500" />
<rect x="5" y="102cm" width="5cm" height="1cm" fill="#DA70D6" />
<rect x="5" y="103cm" width="5cm" height="1cm" fill="#EEE8AA" />
<rect x="5" y="104cm" width="5cm" height="1cm" fill="#98FB98" />
<rect x="5" y="105cm" width="5cm" height="1cm" fill="#AFEEEE" />
<rect x="5" y="106cm" width="5cm" height="1cm" fill="#D87093" />
<rect x="5" y="107cm" width="5cm" height="1cm" fill="#FFEFD5" />
<rect x="5" y="108cm" width="5cm" height="1cm" fill="#FFDAB9" />
<rect x="5" y="109cm" width="5cm" height="1cm" fill="#CD853F" />
<rect x="5" y="110cm" width="5cm" height="1cm" fill="#FFC0CB" />
<rect x="5" y="111cm" width="5cm" height="1cm" fill="#DDA0DD" />
<rect x="5" y="112cm" width="5cm" height="1cm" fill="#B0E0E6" />
<rect x="5" y="113cm" width="5cm" height="1cm" fill="#800080" />
<rect x="5" y="114cm" width="5cm" height="1cm" fill="#FF0000" />
<rect x="5" y="115cm" width="5cm" height="1cm" fill="#BC8F8F" />
<rect x="5" y="116cm" width="5cm" height="1cm" fill="#4169E1" />
<rect x="5" y="117cm" width="5cm" height="1cm" fill="#8B4513" />
<rect x="5" y="118cm" width="5cm" height="1cm" fill="#FA8072" />
<rect x="5" y="119cm" width="5cm" height="1cm" fill="#F4A460" />
<rect x="5" y="120cm" width="5cm" height="1cm" fill="#2E8B57" />
<rect x="5" y="121cm" width="5cm" height="1cm" fill="#FFF5EE" />
<rect x="5" y="122cm" width="5cm" height="1cm" fill="#A0522D" />
<rect x="5" y="123cm" width="5cm" height="1cm" fill="#C0C0C0" />
<rect x="5" y="124cm" width="5cm" height="1cm" fill="#87CEEB" />
<rect x="5" y="125cm" width="5cm" height="1cm" fill="#6A5ACD" />
<rect x="5" y="126cm" width="5cm" height="1cm" fill="#708090" />
<rect x="5" y="127cm" width="5cm" height="1cm" fill="#FFFAFA" />
<rect x="5" y="128cm" width="5cm" height="1cm" fill="#00FF7F" />
<rect x="5" y="129cm" width="5cm" height="1cm" fill="#4682B4" />
<rect x="5" y="130cm" width="5cm" height="1cm" fill="#D2B48C" />
<rect x="5" y="131cm" width="5cm" height="1cm" fill="#008080" />
<rect x="5" y="132cm" width="5cm" height="1cm" fill="#D8BFD8" />
<rect x="5" y="133cm" width="5cm" height="1cm" fill="#FF6347" />
<rect x="5" y="134cm" width="5cm" height="1cm" fill="#40E0D0" />
<rect x="5" y="135cm" width="5cm" height="1cm" fill="#EE82EE" />
<rect x="5" y="136cm" width="5cm" height="1cm" fill="#D02090" />
<rect x="5" y="137cm" width="5cm" height="1cm" fill="#F5DEB3" />
<rect x="5" y="138cm" width="5cm" height="1cm" fill="#FFFFFF" />
<rect x="5" y="139cm" width="5cm" height="1cm" fill="#F5F5F5" />
<rect x="5" y="140cm" width="5cm" height="1cm" fill="#FFFF00" />
<rect x="5" y="141cm" width="5cm" height="1cm" fill="#9ACD32" />
</svg>