<svg version="1.1" width="15cm" height="21.15cm"
    xmlns="http://www.w3.org/2000/svg">
<rect x="0cm" y="0.00cm" width="5cm" height=".45cm" fill="AliceBlue" />
 <text x="2.5cm" y="0.35cm"  font-size="10" text-anchor="middle" fill="black">AliceBlue 爱丽丝蓝 #F0F8FF</text>
<rect x="5cm" y="0.00cm" width="5cm" height=".45cm" fill="AntiqueWhite" />
 <text x="7.5cm" y="0.35cm"  font-size="10" text-anchor="middle" fill="black">AntiqueWhite 古董白 #FAEBD7</text>
<rect x="10cm" y="0.00cm" width="5cm" height=".45cm" fill="Aqua" />
 <text x="12.5cm" y="0.35cm"  font-size="10" text-anchor="middle" fill="black">Aqua 水色 #AFDFE4</text>
<rect x="0cm" y="0.45cm" width="5cm" height=".45cm" fill="Aquamarine" />
 <text x="2.5cm" y="0.80cm"  font-size="10" text-anchor="middle" fill="black">Aquamarine 碧蓝色 #7FFFD4</text>
<rect x="5cm" y="0.45cm" width="5cm" height=".45cm" fill="Azure" />
 <text x="7.5cm" y="0.80cm"  font-size="10" text-anchor="middle" fill="black">Azure 湛蓝色 #F0FFFF</text>
<rect x="10cm" y="0.45cm" width="5cm" height=".45cm" fill="Beige" />
 <text x="12.5cm" y="0.80cm"  font-size="10" text-anchor="middle" fill="black">Beige 米黄色 #F5F5DC</text>
<rect x="0cm" y="0.90cm" width="5cm" height=".45cm" fill="Bisque" />
 <text x="2.5cm" y="1.25cm"  font-size="10" text-anchor="middle" fill="black">Bisque 陶坯黄 #FFE4C4</text>
<rect x="5cm" y="0.90cm" width="5cm" height=".45cm" fill="Black" />
 <text x="7.5cm" y="1.25cm"  font-size="10" text-anchor="middle" fill="black">Black 黑色 #000000</text>
<rect x="10cm" y="0.90cm" width="5cm" height=".45cm" fill="BlanchedAlmond" />
 <text x="12.5cm" y="1.25cm"  font-size="10" text-anchor="middle" fill="black">BlanchedAlmond 杏仁白 #FFEBCD</text>
<rect x="0cm" y="1.35cm" width="5cm" height=".45cm" fill="Blue" />
 <text x="2.5cm" y="1.70cm"  font-size="10" text-anchor="middle" fill="black">Blue 蓝色 #0000FF</text>
<rect x="5cm" y="1.35cm" width="5cm" height=".45cm" fill="BlueViolet" />
 <text x="7.5cm" y="1.70cm"  font-size="10" text-anchor="middle" fill="black">BlueViolet 蓝紫 #8A2BE2</text>
<rect x="10cm" y="1.35cm" width="5cm" height=".45cm" fill="Brown" />
 <text x="12.5cm" y="1.70cm"  font-size="10" text-anchor="middle" fill="black">Brown 褐色 #A52A2A</text>
<rect x="0cm" y="1.80cm" width="5cm" height=".45cm" fill="BurlyWood" />
 <text x="2.5cm" y="2.15cm"  font-size="10" text-anchor="middle" fill="black">BurlyWood 硬木色 #DEB887</text>
<rect x="5cm" y="1.80cm" width="5cm" height=".45cm" fill="CadetBlue" />
 <text x="7.5cm" y="2.15cm"  font-size="10" text-anchor="middle" fill="black">CadetBlue 军服蓝 #5F9EA0</text>
<rect x="10cm" y="1.80cm" width="5cm" height=".45cm" fill="Chartreuse" />
 <text x="12.5cm" y="2.15cm"  font-size="10" text-anchor="middle" fill="black">Chartreuse 查特酒绿 #7FFF00</text>
<rect x="0cm" y="2.25cm" width="5cm" height=".45cm" fill="Chocolate" />
 <text x="2.5cm" y="2.60cm"  font-size="10" text-anchor="middle" fill="black">Chocolate 巧克力色 #D2691E</text>
<rect x="5cm" y="2.25cm" width="5cm" height=".45cm" fill="Coral" />
 <text x="7.5cm" y="2.60cm"  font-size="10" text-anchor="middle" fill="black">Coral 珊瑚红 #FF7F50</text>
<rect x="10cm" y="2.25cm" width="5cm" height=".45cm" fill="CornflowerBlue" />
 <text x="12.5cm" y="2.60cm"  font-size="10" text-anchor="middle" fill="black">CornflowerBlue 矢车菊蓝 #6495ED</text>
<rect x="0cm" y="2.70cm" width="5cm" height=".45cm" fill="Cornsilk" />
 <text x="2.5cm" y="3.05cm"  font-size="10" text-anchor="middle" fill="black">Cornsilk 玉米丝色 #FFF8DC</text>
<rect x="5cm" y="2.70cm" width="5cm" height=".45cm" fill="Crimson" />
 <text x="7.5cm" y="3.05cm"  font-size="10" text-anchor="middle" fill="black">Crimson 绯红 #DC143C</text>
<rect x="10cm" y="2.70cm" width="5cm" height=".45cm" fill="Cyan" />
 <text x="12.5cm" y="3.05cm"  font-size="10" text-anchor="middle" fill="black">Cyan 青色 #00FFFF</text>
<rect x="0cm" y="3.15cm" width="5cm" height=".45cm" fill="DarkBlue" />
 <text x="2.5cm" y="3.50cm"  font-size="10" text-anchor="middle" fill="black">DarkBlue 暗蓝 #00008B</text>
<rect x="5cm" y="3.15cm" width="5cm" height=".45cm" fill="DarkCyan" />
 <text x="7.5cm" y="3.50cm"  font-size="10" text-anchor="middle" fill="black">DarkCyan 暗青 #008B8B</text>
<rect x="10cm" y="3.15cm" width="5cm" height=".45cm" fill="DarkGoldenRod" />
 <text x="12.5cm" y="3.50cm"  font-size="10" text-anchor="middle" fill="black">DarkGoldenRod 暗金菊色 #B8860B</text>
<rect x="0cm" y="3.60cm" width="5cm" height=".45cm" fill="DarkGray" />
 <text x="2.5cm" y="3.95cm"  font-size="10" text-anchor="middle" fill="black">DarkGray 暗灰 #A9A9A9</text>
<rect x="5cm" y="3.60cm" width="5cm" height=".45cm" fill="DarkGreen" />
 <text x="7.5cm" y="3.95cm"  font-size="10" text-anchor="middle" fill="black">DarkGreen 暗绿 #006400</text>
<rect x="10cm" y="3.60cm" width="5cm" height=".45cm" fill="DarkKhaki" />
 <text x="12.5cm" y="3.95cm"  font-size="10" text-anchor="middle" fill="black">DarkKhaki 暗卡其色 #BDB76B</text>
<rect x="0cm" y="4.05cm" width="5cm" height=".45cm" fill="DarkMagenta" />
 <text x="2.5cm" y="4.40cm"  font-size="10" text-anchor="middle" fill="black">DarkMagenta 暗洋红 #8B008B</text>
<rect x="5cm" y="4.05cm" width="5cm" height=".45cm" fill="DarkOliveGreen" />
 <text x="7.5cm" y="4.40cm"  font-size="10" text-anchor="middle" fill="black">DarkOliveGreen 暗橄榄绿 #556B2F</text>
<rect x="10cm" y="4.05cm" width="5cm" height=".45cm" fill="Darkorange" />
 <text x="12.5cm" y="4.40cm"  font-size="10" text-anchor="middle" fill="black">Darkorange 暗橙 #FF8C00</text>
<rect x="0cm" y="4.50cm" width="5cm" height=".45cm" fill="DarkOrchid" />
 <text x="2.5cm" y="4.85cm"  font-size="10" text-anchor="middle" fill="black">DarkOrchid 暗兰紫 #9932CC</text>
<rect x="5cm" y="4.50cm" width="5cm" height=".45cm" fill="DarkRed" />
 <text x="7.5cm" y="4.85cm"  font-size="10" text-anchor="middle" fill="black">DarkRed 暗红 #8B0000</text>
<rect x="10cm" y="4.50cm" width="5cm" height=".45cm" fill="DarkSalmon" />
 <text x="12.5cm" y="4.85cm"  font-size="10" text-anchor="middle" fill="black">DarkSalmon 暗鲑红 #E9967A</text>
<rect x="0cm" y="4.95cm" width="5cm" height=".45cm" fill="DarkSeaGreen" />
 <text x="2.5cm" y="5.30cm"  font-size="10" text-anchor="middle" fill="black">DarkSeaGreen 暗海绿 #8FBC8F</text>
<rect x="5cm" y="4.95cm" width="5cm" height=".45cm" fill="DarkSlateBlue" />
 <text x="7.5cm" y="5.30cm"  font-size="10" text-anchor="middle" fill="black">DarkSlateBlue 暗岩蓝 #483D8B</text>
<rect x="10cm" y="4.95cm" width="5cm" height=".45cm" fill="DarkSlateGray" />
 <text x="12.5cm" y="5.30cm"  font-size="10" text-anchor="middle" fill="black">DarkSlateGray 暗岩灰 #2F4F4F</text>
<rect x="0cm" y="5.40cm" width="5cm" height=".45cm" fill="DarkTurquoise" />
 <text x="2.5cm" y="5.75cm"  font-size="10" text-anchor="middle" fill="black">DarkTurquoise 暗绿松石色 #00CED1</text>
<rect x="5cm" y="5.40cm" width="5cm" height=".45cm" fill="DarkViolet" />
 <text x="7.5cm" y="5.75cm"  font-size="10" text-anchor="middle" fill="black">DarkViolet 暗紫 #9400D3</text>
<rect x="10cm" y="5.40cm" width="5cm" height=".45cm" fill="DeepPink" />
 <text x="12.5cm" y="5.75cm"  font-size="10" text-anchor="middle" fill="black">DeepPink 深粉红 #FF1493</text>
<rect x="0cm" y="5.85cm" width="5cm" height=".45cm" fill="DeepSkyBlue" />
 <text x="2.5cm" y="6.20cm"  font-size="10" text-anchor="middle" fill="black">DeepSkyBlue 深天蓝 #00BFFF</text>
<rect x="5cm" y="5.85cm" width="5cm" height=".45cm" fill="DimGray" />
 <text x="7.5cm" y="6.20cm"  font-size="10" text-anchor="middle" fill="black">DimGray 昏灰 #696969</text>
<rect x="10cm" y="5.85cm" width="5cm" height=".45cm" fill="DodgerBlue" />
 <text x="12.5cm" y="6.20cm"  font-size="10" text-anchor="middle" fill="black">DodgerBlue 道奇蓝 #1E90FF</text>
<rect x="0cm" y="6.30cm" width="5cm" height=".45cm" fill="FireBrick" />
 <text x="2.5cm" y="6.65cm"  font-size="10" text-anchor="middle" fill="black">FireBrick 耐火砖红 #B22222</text>
<rect x="5cm" y="6.30cm" width="5cm" height=".45cm" fill="FloralWhite" />
 <text x="7.5cm" y="6.65cm"  font-size="10" text-anchor="middle" fill="black">FloralWhite 花卉白 #FFFAF0</text>
<rect x="10cm" y="6.30cm" width="5cm" height=".45cm" fill="ForestGreen" />
 <text x="12.5cm" y="6.65cm"  font-size="10" text-anchor="middle" fill="black">ForestGreen 森林绿 #228B22</text>
<rect x="0cm" y="6.75cm" width="5cm" height=".45cm" fill="Fuchsia" />
 <text x="2.5cm" y="7.10cm"  font-size="10" text-anchor="middle" fill="black">Fuchsia 品红 #F400A1</text>
<rect x="5cm" y="6.75cm" width="5cm" height=".45cm" fill="Gainsboro" />
 <text x="7.5cm" y="7.10cm"  font-size="10" text-anchor="middle" fill="black">Gainsboro 庚斯博罗灰 #DCDCDC</text>
<rect x="10cm" y="6.75cm" width="5cm" height=".45cm" fill="GhostWhite" />
 <text x="12.5cm" y="7.10cm"  font-size="10" text-anchor="middle" fill="black">GhostWhite 幽灵白 #F8F8FF</text>
<rect x="0cm" y="7.20cm" width="5cm" height=".45cm" fill="Golden" />
 <text x="2.5cm" y="7.55cm"  font-size="10" text-anchor="middle" fill="black">Golden 金色 #FFD700</text>
<rect x="5cm" y="7.20cm" width="5cm" height=".45cm" fill="GoldenRod" />
 <text x="7.5cm" y="7.55cm"  font-size="10" text-anchor="middle" fill="black">GoldenRod 金菊色 #DAA520</text>
<rect x="10cm" y="7.20cm" width="5cm" height=".45cm" fill="Gray" />
 <text x="12.5cm" y="7.55cm"  font-size="10" text-anchor="middle" fill="black">Gray 灰色 #808080</text>
<rect x="0cm" y="7.65cm" width="5cm" height=".45cm" fill="Green" />
 <text x="2.5cm" y="8.00cm"  font-size="10" text-anchor="middle" fill="black">Green 绿色 #008000</text>
<rect x="5cm" y="7.65cm" width="5cm" height=".45cm" fill="GreenYellow" />
 <text x="7.5cm" y="8.00cm"  font-size="10" text-anchor="middle" fill="black">GreenYellow 绿黄 #ADFF2F</text>
<rect x="10cm" y="7.65cm" width="5cm" height=".45cm" fill="HoneyDew" />
 <text x="12.5cm" y="8.00cm"  font-size="10" text-anchor="middle" fill="black">HoneyDew 蜜瓜绿 #F0FFF0</text>
<rect x="0cm" y="8.10cm" width="5cm" height=".45cm" fill="HotPink" />
 <text x="2.5cm" y="8.45cm"  font-size="10" text-anchor="middle" fill="black">HotPink 暖粉红 #FF69B4</text>
<rect x="5cm" y="8.10cm" width="5cm" height=".45cm" fill="IndianRed" />
 <text x="7.5cm" y="8.45cm"  font-size="10" text-anchor="middle" fill="black">IndianRed 印度红 #CD5C5C</text>
<rect x="10cm" y="8.10cm" width="5cm" height=".45cm" fill="Indigo" />
 <text x="12.5cm" y="8.45cm"  font-size="10" text-anchor="middle" fill="black">Indigo 靛色 #4B0082</text>
<rect x="0cm" y="8.55cm" width="5cm" height=".45cm" fill="Ivory" />
 <text x="2.5cm" y="8.90cm"  font-size="10" text-anchor="middle" fill="black">Ivory 象牙色 #FFFFF0</text>
<rect x="5cm" y="8.55cm" width="5cm" height=".45cm" fill="Khaki" />
 <text x="7.5cm" y="8.90cm"  font-size="10" text-anchor="middle" fill="black">Khaki 卡其色 #F0E68C</text>
<rect x="10cm" y="8.55cm" width="5cm" height=".45cm" fill="Lavender" />
 <text x="12.5cm" y="8.90cm"  font-size="10" text-anchor="middle" fill="black">Lavender 薰衣草紫 #E6E6FA</text>
<rect x="0cm" y="9.00cm" width="5cm" height=".45cm" fill="LavenderBlush" />
 <text x="2.5cm" y="9.35cm"  font-size="10" text-anchor="middle" fill="black">LavenderBlush 薰衣草紫红 #FFF0F5</text>
<rect x="5cm" y="9.00cm" width="5cm" height=".45cm" fill="LawnGreen" />
 <text x="7.5cm" y="9.35cm"  font-size="10" text-anchor="middle" fill="black">LawnGreen 草坪绿 #7CFC00</text>
<rect x="10cm" y="9.00cm" width="5cm" height=".45cm" fill="LemonChiffon" />
 <text x="12.5cm" y="9.35cm"  font-size="10" text-anchor="middle" fill="black">LemonChiffon 柠檬绸色 #FFFACD</text>
<rect x="0cm" y="9.45cm" width="5cm" height=".45cm" fill="LightBlue" />
 <text x="2.5cm" y="9.80cm"  font-size="10" text-anchor="middle" fill="black">LightBlue 亮蓝 #ADD8E6</text>
<rect x="5cm" y="9.45cm" width="5cm" height=".45cm" fill="LightCoral" />
 <text x="7.5cm" y="9.80cm"  font-size="10" text-anchor="middle" fill="black">LightCoral 亮珊瑚色 #F08080</text>
<rect x="10cm" y="9.45cm" width="5cm" height=".45cm" fill="LightCyan" />
 <text x="12.5cm" y="9.80cm"  font-size="10" text-anchor="middle" fill="black">LightCyan 亮青色 #E0FFFF</text>
<rect x="0cm" y="9.90cm" width="5cm" height=".45cm" fill="LightGoldenRodYellow" />
 <text x="2.5cm" y="10.25cm"  font-size="10" text-anchor="middle" fill="black">LightGoldenRodYellow 亮秋黄 #FAFAD2</text>
<rect x="5cm" y="9.90cm" width="5cm" height=".45cm" fill="LightGrey" />
 <text x="7.5cm" y="10.25cm"  font-size="10" text-anchor="middle" fill="black">LightGrey 亮灰色 #D3D3D3</text>
<rect x="10cm" y="9.90cm" width="5cm" height=".45cm" fill="LightGreen" />
 <text x="12.5cm" y="10.25cm"  font-size="10" text-anchor="middle" fill="black">LightGreen 亮绿 #90EE90</text>
<rect x="0cm" y="10.35cm" width="5cm" height=".45cm" fill="LightPink" />
 <text x="2.5cm" y="10.70cm"  font-size="10" text-anchor="middle" fill="black">LightPink 浅粉红 #FFB6C1</text>
<rect x="5cm" y="10.35cm" width="5cm" height=".45cm" fill="LightSalmon" />
 <text x="7.5cm" y="10.70cm"  font-size="10" text-anchor="middle" fill="black">LightSalmon 浅鲑红 #FFA07A</text>
<rect x="10cm" y="10.35cm" width="5cm" height=".45cm" fill="LightSeaGreen" />
 <text x="12.5cm" y="10.70cm"  font-size="10" text-anchor="middle" fill="black">LightSeaGreen 亮海绿 #20B2AA</text>
<rect x="0cm" y="10.80cm" width="5cm" height=".45cm" fill="LightSkyBlue" />
 <text x="2.5cm" y="11.15cm"  font-size="10" text-anchor="middle" fill="black">LightSkyBlue 亮天蓝 #87CEFA</text>
<rect x="5cm" y="10.80cm" width="5cm" height=".45cm" fill="LightSlateGray" />
 <text x="7.5cm" y="11.15cm"  font-size="10" text-anchor="middle" fill="black">LightSlateGray 淡岩灰 #778899</text>
<rect x="10cm" y="10.80cm" width="5cm" height=".45cm" fill="LightSteelBlue" />
 <text x="12.5cm" y="11.15cm"  font-size="10" text-anchor="middle" fill="black">LightSteelBlue 亮钢蓝 #B0C4DE</text>
<rect x="0cm" y="11.25cm" width="5cm" height=".45cm" fill="LightYellow" />
 <text x="2.5cm" y="11.60cm"  font-size="10" text-anchor="middle" fill="black">LightYellow 亮黄 #FFFFE0</text>
<rect x="5cm" y="11.25cm" width="5cm" height=".45cm" fill="Lime" />
 <text x="7.5cm" y="11.60cm"  font-size="10" text-anchor="middle" fill="black">Lime 鲜绿色 #00FF00</text>
<rect x="10cm" y="11.25cm" width="5cm" height=".45cm" fill="LimeGreen" />
 <text x="12.5cm" y="11.60cm"  font-size="10" text-anchor="middle" fill="black">LimeGreen 酸橙绿 #32CD32</text>
<rect x="0cm" y="11.70cm" width="5cm" height=".45cm" fill="Linen" />
 <text x="2.5cm" y="12.05cm"  font-size="10" text-anchor="middle" fill="black">Linen 亚麻色 #FAF0E6</text>
<rect x="5cm" y="11.70cm" width="5cm" height=".45cm" fill="Magenta" />
 <text x="7.5cm" y="12.05cm"  font-size="10" text-anchor="middle" fill="black">Magenta 洋红 #FF00FF</text>
<rect x="10cm" y="11.70cm" width="5cm" height=".45cm" fill="Maroon" />
 <text x="12.5cm" y="12.05cm"  font-size="10" text-anchor="middle" fill="black">Maroon 栗色 #800000</text>
<rect x="0cm" y="12.15cm" width="5cm" height=".45cm" fill="MediumAquaMarine" />
 <text x="2.5cm" y="12.50cm"  font-size="10" text-anchor="middle" fill="black">MediumAquaMarine 中碧 #66CDAA</text>
<rect x="5cm" y="12.15cm" width="5cm" height=".45cm" fill="MediumBlue" />
 <text x="7.5cm" y="12.50cm"  font-size="10" text-anchor="middle" fill="black">MediumBlue 中蓝色 #0000CD</text>
<rect x="10cm" y="12.15cm" width="5cm" height=".45cm" fill="MediumOrchid" />
 <text x="12.5cm" y="12.50cm"  font-size="10" text-anchor="middle" fill="black">MediumOrchid 中兰紫 #BA55D3</text>
<rect x="0cm" y="12.60cm" width="5cm" height=".45cm" fill="MediumPurple" />
 <text x="2.5cm" y="12.95cm"  font-size="10" text-anchor="middle" fill="black">MediumPurple 中紫红 #9370D8</text>
<rect x="5cm" y="12.60cm" width="5cm" height=".45cm" fill="MediumSeaGreen" />
 <text x="7.5cm" y="12.95cm"  font-size="10" text-anchor="middle" fill="black">MediumSeaGreen 中海绿 #3CB371</text>
<rect x="10cm" y="12.60cm" width="5cm" height=".45cm" fill="MediumSlateBlue" />
 <text x="12.5cm" y="12.95cm"  font-size="10" text-anchor="middle" fill="black">MediumSlateBlue 中岩蓝 #7B68EE</text>
<rect x="0cm" y="13.05cm" width="5cm" height=".45cm" fill="MediumSpringGreen" />
 <text x="2.5cm" y="13.40cm"  font-size="10" text-anchor="middle" fill="black">MediumSpringGreen 中春绿 #00FA9A</text>
<rect x="5cm" y="13.05cm" width="5cm" height=".45cm" fill="MediumTurquoise" />
 <text x="7.5cm" y="13.40cm"  font-size="10" text-anchor="middle" fill="black">MediumTurquoise 中绿松 #48D1CC</text>
<rect x="10cm" y="13.05cm" width="5cm" height=".45cm" fill="MediumVioletRed" />
 <text x="12.5cm" y="13.40cm"  font-size="10" text-anchor="middle" fill="black">MediumVioletRed 中紫罗兰色 #C71585</text>
<rect x="0cm" y="13.50cm" width="5cm" height=".45cm" fill="MidnightBlue" />
 <text x="2.5cm" y="13.85cm"  font-size="10" text-anchor="middle" fill="black">MidnightBlue 午夜蓝 #191970</text>
<rect x="5cm" y="13.50cm" width="5cm" height=".45cm" fill="MintCream" />
 <text x="7.5cm" y="13.85cm"  font-size="10" text-anchor="middle" fill="black">MintCream 薄荷奶油色 #F5FFFA</text>
<rect x="10cm" y="13.50cm" width="5cm" height=".45cm" fill="MistyRose" />
 <text x="12.5cm" y="13.85cm"  font-size="10" text-anchor="middle" fill="black">MistyRose 雾玫瑰色 #FFE4E1</text>
<rect x="0cm" y="13.95cm" width="5cm" height=".45cm" fill="Moccasin" />
 <text x="2.5cm" y="14.30cm"  font-size="10" text-anchor="middle" fill="black">Moccasin 鹿皮鞋色 #FFE4B5</text>
<rect x="5cm" y="13.95cm" width="5cm" height=".45cm" fill="NavajoWhite" />
 <text x="7.5cm" y="14.30cm"  font-size="10" text-anchor="middle" fill="black">NavajoWhite 那瓦霍白 #FFDEAD</text>
<rect x="10cm" y="13.95cm" width="5cm" height=".45cm" fill="Navy" />
 <text x="12.5cm" y="14.30cm"  font-size="10" text-anchor="middle" fill="black">Navy 藏青 #000080</text>
<rect x="0cm" y="14.40cm" width="5cm" height=".45cm" fill="OldLace" />
 <text x="2.5cm" y="14.75cm"  font-size="10" text-anchor="middle" fill="black">OldLace 旧蕾丝色 #FDF5E6</text>
<rect x="5cm" y="14.40cm" width="5cm" height=".45cm" fill="Olive" />
 <text x="7.5cm" y="14.75cm"  font-size="10" text-anchor="middle" fill="black">Olive 橄榄色 #808000</text>
<rect x="10cm" y="14.40cm" width="5cm" height=".45cm" fill="OliveDrab" />
 <text x="12.5cm" y="14.75cm"  font-size="10" text-anchor="middle" fill="black">OliveDrab 橄榄军服绿 #6B8E23</text>
<rect x="0cm" y="14.85cm" width="5cm" height=".45cm" fill="Orange" />
 <text x="2.5cm" y="15.20cm"  font-size="10" text-anchor="middle" fill="black">Orange 橙色 #FFA500</text>
<rect x="5cm" y="14.85cm" width="5cm" height=".45cm" fill="OrangeRed" />
 <text x="7.5cm" y="15.20cm"  font-size="10" text-anchor="middle" fill="black">OrangeRed 橙红色 #FF4500</text>
<rect x="10cm" y="14.85cm" width="5cm" height=".45cm" fill="Orchid" />
 <text x="12.5cm" y="15.20cm"  font-size="10" text-anchor="middle" fill="black">Orchid 兰紫 #DA70D6</text>
<rect x="0cm" y="15.30cm" width="5cm" height=".45cm" fill="PaleGoldenRod" />
 <text x="2.5cm" y="15.65cm"  font-size="10" text-anchor="middle" fill="black">PaleGoldenRod 灰金菊色 #EEE8AA</text>
<rect x="5cm" y="15.30cm" width="5cm" height=".45cm" fill="PaleGreen" />
 <text x="7.5cm" y="15.65cm"  font-size="10" text-anchor="middle" fill="black">PaleGreen 灰绿 #98FB98</text>
<rect x="10cm" y="15.30cm" width="5cm" height=".45cm" fill="PaleTurquoise" />
 <text x="12.5cm" y="15.65cm"  font-size="10" text-anchor="middle" fill="black">PaleTurquoise 灰绿松石色 #AFEEEE</text>
<rect x="0cm" y="15.75cm" width="5cm" height=".45cm" fill="PaleVioletRed" />
 <text x="2.5cm" y="16.10cm"  font-size="10" text-anchor="middle" fill="black">PaleVioletRed 灰紫红 #D87093</text>
<rect x="5cm" y="15.75cm" width="5cm" height=".45cm" fill="PapayaWhip" />
 <text x="7.5cm" y="16.10cm"  font-size="10" text-anchor="middle" fill="black">PapayaWhip 蕃木瓜色 #FFEFD5</text>
<rect x="10cm" y="15.75cm" width="5cm" height=".45cm" fill="PeachPuff" />
 <text x="12.5cm" y="16.10cm"  font-size="10" text-anchor="middle" fill="black">PeachPuff 桃肉色 #FFDAB9</text>
<rect x="0cm" y="16.20cm" width="5cm" height=".45cm" fill="Peru" />
 <text x="2.5cm" y="16.55cm"  font-size="10" text-anchor="middle" fill="black">Peru 秘鲁色 #CD853F</text>
<rect x="5cm" y="16.20cm" width="5cm" height=".45cm" fill="Pink" />
 <text x="7.5cm" y="16.55cm"  font-size="10" text-anchor="middle" fill="black">Pink 粉红 #FFC0CB</text>
<rect x="10cm" y="16.20cm" width="5cm" height=".45cm" fill="Plum" />
 <text x="12.5cm" y="16.55cm"  font-size="10" text-anchor="middle" fill="black">Plum 梅红色 #DDA0DD</text>
<rect x="0cm" y="16.65cm" width="5cm" height=".45cm" fill="PowderBlue" />
 <text x="2.5cm" y="17.00cm"  font-size="10" text-anchor="middle" fill="black">PowderBlue 粉蓝色 #B0E0E6</text>
<rect x="5cm" y="16.65cm" width="5cm" height=".45cm" fill="Purple" />
 <text x="7.5cm" y="17.00cm"  font-size="10" text-anchor="middle" fill="black">Purple 紫色 #800080</text>
<rect x="10cm" y="16.65cm" width="5cm" height=".45cm" fill="Red" />
 <text x="12.5cm" y="17.00cm"  font-size="10" text-anchor="middle" fill="black">Red 红色 #FF0000</text>
<rect x="0cm" y="17.10cm" width="5cm" height=".45cm" fill="RosyBrown" />
 <text x="2.5cm" y="17.45cm"  font-size="10" text-anchor="middle" fill="black">RosyBrown 玫瑰褐 #BC8F8F</text>
<rect x="5cm" y="17.10cm" width="5cm" height=".45cm" fill="RoyalBlue" />
 <text x="7.5cm" y="17.45cm"  font-size="10" text-anchor="middle" fill="black">RoyalBlue 品蓝 #4169E1</text>
<rect x="10cm" y="17.10cm" width="5cm" height=".45cm" fill="SaddleBrown" />
 <text x="12.5cm" y="17.45cm"  font-size="10" text-anchor="middle" fill="black">SaddleBrown 鞍褐 #8B4513</text>
<rect x="0cm" y="17.55cm" width="5cm" height=".45cm" fill="Salmon" />
 <text x="2.5cm" y="17.90cm"  font-size="10" text-anchor="middle" fill="black">Salmon 鲑红 #FA8072</text>
<rect x="5cm" y="17.55cm" width="5cm" height=".45cm" fill="SandyBrown" />
 <text x="7.5cm" y="17.90cm"  font-size="10" text-anchor="middle" fill="black">SandyBrown 沙褐色 #F4A460</text>
<rect x="10cm" y="17.55cm" width="5cm" height=".45cm" fill="SeaGreen" />
 <text x="12.5cm" y="17.90cm"  font-size="10" text-anchor="middle" fill="black">SeaGreen 海藻绿 #2E8B57</text>
<rect x="0cm" y="18.00cm" width="5cm" height=".45cm" fill="SeaShell" />
 <text x="2.5cm" y="18.35cm"  font-size="10" text-anchor="middle" fill="black">SeaShell 海贝色 #FFF5EE</text>
<rect x="5cm" y="18.00cm" width="5cm" height=".45cm" fill="Sienna" />
 <text x="7.5cm" y="18.35cm"  font-size="10" text-anchor="middle" fill="black">Sienna 赭黄 #A0522D</text>
<rect x="10cm" y="18.00cm" width="5cm" height=".45cm" fill="Silver" />
 <text x="12.5cm" y="18.35cm"  font-size="10" text-anchor="middle" fill="black">Silver 银色 #C0C0C0</text>
<rect x="0cm" y="18.45cm" width="5cm" height=".45cm" fill="SkyBlue" />
 <text x="2.5cm" y="18.80cm"  font-size="10" text-anchor="middle" fill="black">SkyBlue 天蓝 #87CEEB</text>
<rect x="5cm" y="18.45cm" width="5cm" height=".45cm" fill="SlateBlue" />
 <text x="7.5cm" y="18.80cm"  font-size="10" text-anchor="middle" fill="black">SlateBlue 岩蓝 #6A5ACD</text>
<rect x="10cm" y="18.45cm" width="5cm" height=".45cm" fill="SlateGray" />
 <text x="12.5cm" y="18.80cm"  font-size="10" text-anchor="middle" fill="black">SlateGray 岩灰 #708090</text>
<rect x="0cm" y="18.90cm" width="5cm" height=".45cm" fill="Snow" />
 <text x="2.5cm" y="19.25cm"  font-size="10" text-anchor="middle" fill="black">Snow 雪色 #FFFAFA</text>
<rect x="5cm" y="18.90cm" width="5cm" height=".45cm" fill="SpringGreen" />
 <text x="7.5cm" y="19.25cm"  font-size="10" text-anchor="middle" fill="black">SpringGreen 春绿 #00FF7F</text>
<rect x="10cm" y="18.90cm" width="5cm" height=".45cm" fill="SteelBlue" />
 <text x="12.5cm" y="19.25cm"  font-size="10" text-anchor="middle" fill="black">SteelBlue 钢蓝色 #4682B4</text>
<rect x="0cm" y="19.35cm" width="5cm" height=".45cm" fill="Tan" />
 <text x="2.5cm" y="19.70cm"  font-size="10" text-anchor="middle" fill="black">Tan 日晒色 #D2B48C</text>
<rect x="5cm" y="19.35cm" width="5cm" height=".45cm" fill="Teal" />
 <text x="7.5cm" y="19.70cm"  font-size="10" text-anchor="middle" fill="black">Teal 凫绿 #008080</text>
<rect x="10cm" y="19.35cm" width="5cm" height=".45cm" fill="Thistle" />
 <text x="12.5cm" y="19.70cm"  font-size="10" text-anchor="middle" fill="black">Thistle 蓟紫 #D8BFD8</text>
<rect x="0cm" y="19.80cm" width="5cm" height=".45cm" fill="Tomato" />
 <text x="2.5cm" y="20.15cm"  font-size="10" text-anchor="middle" fill="black">Tomato 蕃茄红 #FF6347</text>
<rect x="5cm" y="19.80cm" width="5cm" height=".45cm" fill="Turquoise" />
 <text x="7.5cm" y="20.15cm"  font-size="10" text-anchor="middle" fill="black">Turquoise 绿松石色 #40E0D0</text>
<rect x="10cm" y="19.80cm" width="5cm" height=".45cm" fill="Violet" />
 <text x="12.5cm" y="20.15cm"  font-size="10" text-anchor="middle" fill="black">Violet 紫罗兰色 #EE82EE</text>
<rect x="0cm" y="20.25cm" width="5cm" height=".45cm" fill="VioletRed" />
 <text x="2.5cm" y="20.60cm"  font-size="10" text-anchor="middle" fill="black">VioletRed 紫红 #D02090</text>
<rect x="5cm" y="20.25cm" width="5cm" height=".45cm" fill="Wheat" />
 <text x="7.5cm" y="20.60cm"  font-size="10" text-anchor="middle" fill="black">Wheat 小麦色 #F5DEB3</text>
<rect x="10cm" y="20.25cm" width="5cm" height=".45cm" fill="White" />
 <text x="12.5cm" y="20.60cm"  font-size="10" text-anchor="middle" fill="black">White 白色 #FFFFFF</text>
<rect x="0cm" y="20.70cm" width="5cm" height=".45cm" fill="WhiteSmoke" />
 <text x="2.5cm" y="21.05cm"  font-size="10" text-anchor="middle" fill="black">WhiteSmoke 白烟色 #F5F5F5</text>
<rect x="5cm" y="20.70cm" width="5cm" height=".45cm" fill="Yellow" />
 <text x="7.5cm" y="21.05cm"  font-size="10" text-anchor="middle" fill="black">Yellow 黄色 #FFFF00</text>
<rect x="10cm" y="20.70cm" width="5cm" height=".45cm" fill="YellowGreen" />
 <text x="12.5cm" y="21.05cm"  font-size="10" text-anchor="middle" fill="black">YellowGreen 黄绿色 #9ACD32</text>
 <text x="7.5cm" y="1.25cm"  font-size="10" text-anchor="middle" fill="white">Black 黑色 #000000</text> <text x="2.5cm" y="3.5cm"  font-size="10" text-anchor="middle" fill="white">DarkBlue 暗蓝 #00008B</text> <text x="12.5cm" y="8.45cm"  font-size="10" text-anchor="middle" fill="white">Indigo 靛色 #4B0082</text><text x="7.5cm" y="12.50cm"  font-size="10" text-anchor="middle" fill="white">MediumBlue 中蓝色 #0000CD</text> <text x="2.5cm" y="13.85cm"  font-size="10" text-anchor="middle" fill="white">MidnightBlue 午夜蓝 #191970</text> <text x="12.5cm" y="14.3cm"  font-size="10" text-anchor="middle" fill="white">Navy 藏青 #000080</text></svg>