<svg version="1.1" width="15cm" height="21.15cm"
    xmlns="http://www.w3.org/2000/svg">
<rect x="0.00cm" y="0.00cm" width="3.7cm" height=".45cm" fill="#AFDFE4"" />
 <text x="1.85cm" y="0.35cm"  font-size="10" text-anchor="middle" fill="black">Aqua 水色 #AFDFE4</text>
<rect x="3.70cm" y="0.00cm" width="3.7cm" height=".45cm" fill="#000000"" />
 <text x="5.55cm" y="0.35cm"  font-size="10" text-anchor="middle" fill="black">Black 黑色 #000000</text>
<rect x="7.40cm" y="0.00cm" width="3.7cm" height=".45cm" fill="#0000FF"" />
 <text x="9.25cm" y="0.35cm"  font-size="10" text-anchor="middle" fill="black">Blue 蓝色 #0000FF</text>
<rect x="11.10cm" y="0.00cm" width="3.7cm" height=".45cm" fill="#F400A1"" />
 <text x="12.95cm" y="0.35cm"  font-size="10" text-anchor="middle" fill="black">Fuchsia 品红 #F400A1</text>
<rect x="0.00cm" y="0.45cm" width="3.7cm" height=".45cm" fill="#808080"" />
 <text x="1.85cm" y="0.80cm"  font-size="10" text-anchor="middle" fill="black">Gray 灰色 #808080</text>
<rect x="3.70cm" y="0.45cm" width="3.7cm" height=".45cm" fill="#008000"" />
 <text x="5.55cm" y="0.80cm"  font-size="10" text-anchor="middle" fill="black">Green 绿色 #008000</text>
<rect x="7.40cm" y="0.45cm" width="3.7cm" height=".45cm" fill="#00FF00"" />
 <text x="9.25cm" y="0.80cm"  font-size="10" text-anchor="middle" fill="black">Lime 鲜绿色 #00FF00</text>
<rect x="11.10cm" y="0.45cm" width="3.7cm" height=".45cm" fill="#800000"" />
 <text x="12.95cm" y="0.80cm"  font-size="10" text-anchor="middle" fill="black">Maroon 栗色 #800000</text>
<rect x="0.00cm" y="0.90cm" width="3.7cm" height=".45cm" fill="#000080"" />
 <text x="1.85cm" y="1.25cm"  font-size="10" text-anchor="middle" fill="black">Navy 藏青 #000080</text>
<rect x="3.70cm" y="0.90cm" width="3.7cm" height=".45cm" fill="#808000"" />
 <text x="5.55cm" y="1.25cm"  font-size="10" text-anchor="middle" fill="black">Olive 橄榄色 #808000</text>
<rect x="7.40cm" y="0.90cm" width="3.7cm" height=".45cm" fill="#800080"" />
 <text x="9.25cm" y="1.25cm"  font-size="10" text-anchor="middle" fill="black">Purple 紫色 #800080</text>
<rect x="11.10cm" y="0.90cm" width="3.7cm" height=".45cm" fill="#FF0000"" />
 <text x="12.95cm" y="1.25cm"  font-size="10" text-anchor="middle" fill="black">Red 红色 #FF0000</text>
<rect x="0.00cm" y="1.35cm" width="3.7cm" height=".45cm" fill="#C0C0C0"" />
 <text x="1.85cm" y="1.70cm"  font-size="10" text-anchor="middle" fill="black">Silver 银色 #C0C0C0</text>
<rect x="3.70cm" y="1.35cm" width="3.7cm" height=".45cm" fill="#008080"" />
 <text x="5.55cm" y="1.70cm"  font-size="10" text-anchor="middle" fill="black">Teal 凫绿 #008080</text>
<rect x="7.40cm" y="1.35cm" width="3.7cm" height=".45cm" fill="#FFFFFF"" />
 <text x="9.25cm" y="1.70cm"  font-size="10" text-anchor="middle" fill="black">White 白色 #FFFFFF</text>
<rect x="11.10cm" y="1.35cm" width="3.7cm" height=".45cm" fill="#FFFF00"" />
 <text x="12.95cm" y="1.70cm"  font-size="10" text-anchor="middle" fill="black">Yellow 黄色 #FFFF00</text>

 <text x="5.55cm" y="0.35cm"  font-size="10" text-anchor="middle" fill="white">Black 黑色 #000000</text>
 <text x="9.25cm" y="0.35cm"  font-size="10" text-anchor="middle" fill="white">Blue 蓝色 #0000FF</text>
 <text x="1.85cm" y="1.25cm"  font-size="10" text-anchor="middle" fill="white">Navy 藏青 #000080</text>
 <text x="9.25cm" y="1.25cm"  font-size="10" text-anchor="middle" fill="white">Purple 紫色 #800080</text>
</svg>